# xmcd CD database file
#
# Track frame offsets:
#	150
#	21587
#	42667
#	64024
#	85954
#	105709
#	124294
#	142569
#	159604
#	179229
#	198847
#	221677
#
# Disc length: 3312 seconds
#
# Revision: 4
# Processed by: cddbd v1.5.2PL0 Copyright (c) Steve Scherf et al.
# Submitted via: jetAudio 7
#
DISCID=b30cee0c
DTITLE=박정현 - A Second Helping
DYEAR=2009
DGENRE=R&B
TTITLE0=夢中人
TTITLE1=눈에 뭐가
TTITLE2=편지할게요
TTITLE3=전야제
TTITLE4=우리가 보여
TTITLE5=고백
TTITLE6=친구처럼
TTITLE7=이별 후 시작
TTITLE8=다신 없겠죠?
TTITLE9=이젠 돌려줄게
TTITLE10=바람에 지는 꽃
TTITLE11=ordinary
EXTD=
EXTT0=
EXTT1=
EXTT2=
EXTT3=
EXTT4=
EXTT5=
EXTT6=
EXTT7=
EXTT8=
EXTT9=
EXTT10=
EXTT11=
PLAYORDER=
